<svg width="785" height="487" viewBox="0 0 785 487" fill="none" xmlns="http://www.w3.org/2000/svg">
<path d="M0.103656 439.2C14.4737 472.5 52.2037 493.51 88.0037 484.81C105.42 480.561 120.814 470.382 131.544 456.02C142.066 441.537 146.581 423.546 144.144 405.81C141.894 388.72 133.694 372.18 120.404 361.01C108.174 350.72 90.7837 345.45 75.0037 349.01C58.6437 352.74 48.0537 366.72 47.3137 383.24C46.5037 401.36 55.5137 418.93 68.0037 431.51C81.1737 444.7 99.3737 453.09 118.184 449.64C136.994 446.19 149.264 431.5 152.074 412.97C155.394 391.11 146.774 370.32 142.854 349.18C139.459 330.652 141.142 311.55 147.724 293.9C160.274 259.77 189.504 231.12 225.244 222.53C244.804 217.83 267.624 218.83 284.334 231.1C299.544 242.27 305.974 262.35 302.274 280.58C298.534 298.99 284.424 312.53 266.134 316.36C248.004 320.15 228.324 314.08 217.284 298.81C206.694 284.18 204.804 264.19 210.604 247.31C217.004 228.81 233.004 215.27 251.104 208.81C292.104 194.3 334.164 216.38 360.384 247.73C387.844 280.56 401.094 322.21 425.384 357.08C446.334 387.17 480.384 416.35 519.384 413.92C558.004 411.55 585.004 378.27 596.894 344.08C612.044 300.53 609.614 253.08 622.674 208.99C634.394 169.41 660.864 129.83 703.674 120.46C723.134 116.013 743.563 120.592 759.264 132.92C773.824 144.36 784.124 162.25 782.174 181.19C780.174 200.79 765.664 217.53 748.034 225.38C727.034 234.72 701.894 231.66 681.824 221.38C649.514 204.81 629.004 168.81 629.004 132.74C629.084 90.1603 659.604 55.9003 693.344 33.6903C712.074 21.3703 732.344 11.6903 752.574 2.10028C753.884 1.48028 752.744 -0.459719 751.434 0.100281C711.914 18.9103 670.264 39.1003 645.014 76.5303C634.394 92.2503 627.504 110.43 626.814 129.53C626.336 146.988 630.278 164.284 638.274 179.81C655.334 213.36 691.574 237.45 730.104 232.54C748.584 230.19 765.664 220.27 775.944 204.54C785.648 189.949 787.181 171.397 780.004 155.41C772.774 139.31 758.314 126.78 741.924 120.6C724.524 114.03 705.244 115.87 688.314 123.02C649.314 139.5 627.914 178.35 617.974 217.63C612.354 239.8 609.834 262.53 606.884 285.17C603.784 309.02 599.994 333.39 589.964 355.47C581.794 373.47 569.234 390.12 552.394 400.77C535.126 411.69 513.988 414.635 494.394 408.85C452.884 396.85 426.884 358.95 407.704 322.85C388.074 285.91 370.264 245.69 334.704 221.07C318.274 209.69 298.704 202.07 278.524 201.95C260.244 201.83 241.714 207.79 227.524 219.46C213.853 230.591 205.667 247.092 205.074 264.71C204.534 281.01 210.504 297.95 223.234 308.58C235.964 319.21 254.004 322.08 269.774 317.81C285.964 313.42 298.774 301.43 303.454 285.24C307.994 269.55 305.104 251.55 295.104 238.52C283.394 223.25 263.464 217.41 244.884 217.75C209.024 218.42 176.414 240.18 157.324 269.75C147.693 284.521 141.583 301.305 139.464 318.81C138.453 327.673 138.614 336.63 139.944 345.45C141.774 357.6 145.504 369.35 148.054 381.35C152.384 401.76 152.724 428.01 133.364 441.17C114.664 453.89 90.3637 447.96 74.1637 434.17C59.1637 421.35 47.7737 401.42 49.7137 381.12C50.6337 371.54 55.1837 362.43 63.1037 356.75C70.4537 351.48 79.6937 349.75 88.6037 350.36C129.654 353.36 151.364 401.18 138.954 437.3C132.394 456.34 116.704 471.56 98.2037 479.18C79.6254 486.815 58.6879 486.256 40.5437 477.64C23.3397 469.554 9.6607 455.491 2.05366 438.07C1.47366 436.74 -0.466344 437.89 0.103656 439.2Z" fill="url(#paint0_linear_2248_672)"/>
<defs>
<linearGradient id="paint0_linear_2248_672" x1="784.478" y1="65.7783" x2="212.012" y2="65.7783" gradientUnits="userSpaceOnUse">
<stop stop-color="#323259" stop-opacity="0.01"/>
<stop offset="1" stop-color="#323259"/>
</linearGradient>
</defs>
</svg>
