<svg width="469" height="555" viewBox="0 0 469 555" fill="none" xmlns="http://www.w3.org/2000/svg">
<path d="M3.77604 0.552901C-4.0604 23.9769 0.369818 51.2836 16.4196 70.2987C30.6418 87.1165 54.4072 97.7333 76.2027 90.7005C95.5165 84.464 111.993 64.5885 108.444 43.4969C105.316 24.8871 85.7885 9.42757 66.8445 12.5493C47.6445 15.7067 38.4 36.144 39.8649 53.872C41.6072 75.4187 58.1618 90.8498 77.2338 98.7502C102.556 109.275 130.261 107.106 157.049 107.796C182.044 108.436 209.828 112.418 228.373 130.935C247.573 150.078 248.469 179.881 237.71 203.511C232.256 215.486 224.199 226.167 214.884 235.404C205.44 244.777 194.432 252.862 181.988 257.776C159.161 266.779 128.732 263.572 114.759 241.136C108.7 231.401 106.361 219.028 109.988 207.998C113.543 197.196 122.716 189.388 133.326 185.876C144.064 182.283 155.78 183.023 165.98 187.938C176.562 193.108 184.91 202.046 190.443 212.343C204.068 237.723 198.706 267.916 189.02 293.637C179.726 318.32 166.308 342.597 166.841 369.726C167.054 380.741 169.486 391.948 175.324 401.399C181.333 411.092 190.635 417.847 201.244 421.851C227.733 431.892 256.576 424.553 283.797 430.22C306.169 434.885 326.684 447.209 341.874 464.212C349.501 472.712 355.693 482.399 360.206 492.891C365.582 505.513 367.317 519.358 372.935 531.881C377.344 541.694 385.124 551.244 395.94 554.06C408.69 557.381 420.935 550.348 432.036 545.029C442.581 539.966 456.533 535.465 466.923 543.287C467.748 543.906 468.544 542.512 467.726 541.908C458.482 534.953 446.116 537.371 436.153 541.431C423.844 546.452 411.157 555.902 397.134 552.709C384.334 549.808 376.512 537.627 372.288 526.092C367.858 513.876 365.767 501.012 360.256 489.164C350.976 469.182 335.232 452.357 316.295 441.193C306.809 435.578 296.508 431.47 285.76 429.019C272.135 425.947 258.133 426.174 244.245 426.117C219.022 425.954 189.077 423.109 175.488 398.484C162.958 375.728 169.088 348.464 177.813 325.644C187.868 299.419 200.967 273.911 200.249 245.054C199.673 222.206 189.184 198.356 168.213 187.284C150.642 178.039 126.507 181.147 113.906 197.324C100.629 214.391 106.908 239.884 122.965 252.791C141.81 267.931 168.476 266.665 189.205 256.29C211.072 245.324 230.13 225.115 239.822 202.672C249.244 180.848 249.124 153.947 233.87 134.704C219.577 116.67 195.819 109.317 173.739 107.156C145.294 104.382 116.068 108.855 88.2632 100.898C66.9938 94.8178 45.4187 80.5031 41.8347 57.0791C38.9049 37.9147 49.1947 14.128 71.2107 13.7511C81.7849 13.5733 91.9325 19.0916 98.7307 26.9707C106.135 35.3718 108.935 46.8766 106.219 57.7405C103.445 68.8053 95.7512 78.2987 86.1654 84.2933C76.0499 90.5779 63.9051 92.7319 52.2454 90.3093C27.1645 85.2889 8.47648 63.792 3.17871 39.344C0.442082 26.5979 1.17885 13.3507 5.31204 0.986679C5.64626 -0.00176567 4.10315 -0.421321 3.77604 0.552901Z" fill="#9A97ED"/>
</svg>
