<svg width="458" height="583" viewBox="0 0 458 583" fill="none" xmlns="http://www.w3.org/2000/svg">
<path opacity="0.2" d="M48.4663 0.0165644C26.9409 4.66012 9.76049 22.1463 3.35338 42.9108C-3.28129 64.4219 3.42449 86.9997 19.9863 102.075C35.9792 116.617 59.8085 123.48 80.5018 115.529C99.8583 108.091 116.676 86.8788 107.332 65.6735C99.4387 47.7677 76.0432 37.3001 57.7676 45.1152C39.492 52.9303 30.6103 74.8041 33.9525 93.6912C38.1765 117.521 61.3303 130.669 82.5 137.332C108.143 145.453 138.016 146.648 159.023 165.336C175.584 180.07 183.705 203.025 182.056 224.948C181.301 235.934 177.818 246.559 171.922 255.86C165.401 265.951 154.272 274.591 141.999 275.771C128.345 277.087 118.532 266.612 117.544 253.464C116.47 239.007 125.231 226.37 133.558 215.398C149.465 194.449 169.824 173.592 196.249 167.135C219.652 161.446 247.798 167.889 260.207 190.168C274.272 215.426 264.26 245.57 249.348 267.857C241.256 279.945 231.634 290.975 222.162 301.99C212.534 313.19 202.82 324.333 193.718 335.988C176.495 358.089 161.469 382.345 154.991 409.894C148.911 435.736 150.724 463.526 165.067 486.417C178.393 507.75 199.912 522.804 222.795 532.454C251.382 544.543 282.457 549.293 312.751 555.081L409.917 573.656L456.509 582.559C457.512 582.751 457.931 581.215 456.936 581.016L360.936 562.662C329.704 556.696 298.251 551.412 267.232 544.415C239.62 538.178 211.922 529.097 189.572 511.128C179.673 503.17 170.969 493.62 164.648 482.555C157.861 470.469 154.005 456.958 153.391 443.11C150.297 382.872 194.912 336.713 230.987 294.125C248.168 273.83 265.832 251.231 268.192 223.725C269.224 211.835 267.339 199.405 261.373 188.945C255.876 179.506 247.381 172.176 237.238 168.123C215.35 159.128 190.696 164.013 171.225 176.408C160.345 183.355 150.866 192.301 142.404 201.972C133.764 211.857 124.726 222.715 119.478 234.84C115.012 245.165 113.995 257.887 120.58 267.601C126.468 276.276 136.893 279.021 146.756 276.539C168.239 271.135 180.648 249.382 183.272 228.717C185.867 208.223 179.872 186.498 166.475 170.683C149.408 150.566 122.77 145.737 98.4147 139.949C75.3463 134.473 47.0227 125.236 37.6147 100.923C30.0983 81.5028 38.1623 55.7677 57.7178 46.8788C77.4725 37.8832 104.395 51.8566 108.008 73.3961C112.345 99.2094 84.1427 117.556 61.3516 117.293C38.5605 117.03 16.2743 102.36 6.88049 81.581C-2.88307 59.949 3.97204 34.349 20.1356 17.7517C27.9107 9.64656 37.9083 4.02062 48.8716 1.58101C49.8885 1.36056 49.4476 -0.175436 48.4663 0.0165644Z" fill="#D1ECFD"/>
</svg>
