<svg width="12" height="12" viewBox="0 0 12 12" fill="none" xmlns="http://www.w3.org/2000/svg">
<ellipse cx="8.56155" cy="2.76764" rx="0.676782" ry="0.682667" fill="#ADADAD"/>
<path fill-rule="evenodd" clip-rule="evenodd" d="M5.64024 8.53334C4.08505 8.53334 2.82031 7.25761 2.82031 5.6889C2.82031 4.12019 4.08505 2.84445 5.64024 2.84445C7.19542 2.84445 8.46016 4.12019 8.46016 5.6889C8.46016 7.25761 7.19542 8.53334 5.64024 8.53334ZM5.64024 4.26667C4.86264 4.26667 4.23027 4.90454 4.23027 5.6889C4.23027 6.47325 4.86264 7.11112 5.64024 7.11112C6.41783 7.11112 7.0502 6.47325 7.0502 5.6889C7.0502 4.90454 6.41783 4.26667 5.64024 4.26667Z" fill="#ADADAD"/>
<path fill-rule="evenodd" clip-rule="evenodd" d="M8.45977 11.3778H2.81992C1.37048 11.3778 0 9.99538 0 8.53333V2.84444C0 1.3824 1.37048 0 2.81992 0H8.45977C9.90921 0 11.2797 1.3824 11.2797 2.84444V8.53333C11.2797 9.99538 9.90921 11.3778 8.45977 11.3778ZM2.81992 1.42222C2.16077 1.42222 1.40996 2.17956 1.40996 2.84444V8.53333C1.40996 9.21102 2.14808 9.95556 2.81992 9.95556H8.45977C9.11893 9.95556 9.86973 9.19822 9.86973 8.53333V2.84444C9.86973 2.17956 9.11893 1.42222 8.45977 1.42222H2.81992Z" fill="#ADADAD"/>
</svg>
