<svg width="12" height="12" viewBox="0 0 12 12" fill="none" xmlns="http://www.w3.org/2000/svg">
<path fill-rule="evenodd" clip-rule="evenodd" d="M11.2796 6.034C11.2803 3.00752 8.93165 0.510338 5.93539 0.351694C2.93912 0.193051 0.344241 2.42849 0.0307703 5.43841C-0.282701 8.44832 1.79499 11.1789 4.75853 11.6518V7.67809H3.32671V6.034H4.75853V4.78031C4.69611 4.18782 4.89794 3.598 5.30937 3.17049C5.72081 2.74297 6.2993 2.52198 6.88827 2.56733C7.31128 2.57294 7.7333 2.61002 8.15089 2.67827V4.07987H7.44027C7.19507 4.04752 6.94858 4.12933 6.77033 4.30222C6.59207 4.47511 6.50137 4.72034 6.5238 4.96876V6.03542H8.08815L7.83788 7.67951H6.52098V11.6553C9.26236 11.2179 11.2807 8.8336 11.2796 6.034Z" fill="#ADADAD"/>
</svg>
